<svg width="60" height="60" viewBox="0 0 60 60" fill="none" xmlns="http://www.w3.org/2000/svg">
<path d="M31 5C31 4.44772 30.5523 4 30 4C29.4477 4 29 4.44772 29 5V8C29 8.55228 29.4477 9 30 9C30.5523 9 31 8.55229 31 8V5Z" fill="#CAD2E7"/>
<path d="M29 52C29 51.4477 29.4477 51 30 51C30.5523 51 31 51.4477 31 52V55C31 55.5523 30.5523 56 30 56C29.4477 56 29 55.5523 29 55V52Z" fill="#CAD2E7"/>
<path d="M4 28C3.44772 28 3 28.4477 3 29C3 29.5523 3.44772 30 4 30H7C7.55228 30 8 29.5523 8 29C8 28.4477 7.55228 28 7 28H4Z" fill="#CAD2E7"/>
<path d="M50 29C50 28.4477 50.4477 28 51 28H54C54.5523 28 55 28.4477 55 29C55 29.5523 54.5523 30 54 30H51C50.4477 30 50 29.5523 50 29Z" fill="#CAD2E7"/>
<path d="M8.34942 15.7679C7.87113 15.4918 7.25954 15.6557 6.9834 16.134C6.70726 16.6123 6.87113 17.2239 7.34942 17.5L8.21545 18C8.69374 18.2761 9.30533 18.1123 9.58147 17.634C9.85762 17.1557 9.69374 16.5441 9.21545 16.268L8.34942 15.7679Z" fill="#CAD2E7"/>
<path d="M15.134 52.0167C14.6557 51.7405 14.4918 51.1289 14.7679 50.6506L15.2679 49.7846C15.5441 49.3063 16.1557 49.1424 16.634 49.4186C17.1123 49.6947 17.2761 50.3063 17 50.7846L16.5 51.6506C16.2239 52.1289 15.6123 52.2928 15.134 52.0167Z" fill="#CAD2E7"/>
<path d="M18.232 7.34942C17.9559 6.87113 17.3443 6.70726 16.866 6.9834C16.3877 7.25954 16.2239 7.87113 16.5 8.34942L17 9.21545C17.2761 9.69374 17.8877 9.85762 18.366 9.58147C18.8443 9.30533 19.0082 8.69374 18.732 8.21545L18.232 7.34942Z" fill="#CAD2E7"/>
<path d="M5.9834 42.134C5.70726 41.6557 5.87113 41.0441 6.34942 40.7679L7.21545 40.2679C7.69374 39.9918 8.30533 40.1557 8.58147 40.634C8.85762 41.1123 8.69374 41.7239 8.21545 42L7.34942 42.5C6.87113 42.7761 6.25954 42.6123 5.9834 42.134Z" fill="#CAD2E7"/>
<path d="M51.1506 15.7679C51.6289 15.4918 52.2405 15.6557 52.5166 16.134C52.7927 16.6123 52.6289 17.2239 52.1506 17.5L51.2845 18C50.8063 18.2761 50.1947 18.1123 49.9185 17.634C49.6424 17.1557 49.8063 16.5441 50.2845 16.268L51.1506 15.7679Z" fill="#CAD2E7"/>
<path d="M44.366 52.0167C44.8443 51.7405 45.0082 51.1289 44.7321 50.6506L44.2321 49.7846C43.9559 49.3063 43.3443 49.1424 42.866 49.4186C42.3877 49.6947 42.2239 50.3063 42.5 50.7846L43 51.6506C43.2761 52.1289 43.8877 52.2928 44.366 52.0167Z" fill="#CAD2E7"/>
<path d="M41.2679 7.34942C41.5441 6.87113 42.1557 6.70726 42.634 6.9834C43.1123 7.25954 43.2761 7.87113 43 8.34942L42.5 9.21545C42.2239 9.69374 41.6123 9.85762 41.134 9.58147C40.6557 9.30533 40.4918 8.69374 40.7679 8.21545L41.2679 7.34942Z" fill="#CAD2E7"/>
<path d="M53.5166 42.134C53.7927 41.6557 53.6289 41.0441 53.1506 40.7679L52.2845 40.2679C51.8063 39.9918 51.1947 40.1557 50.9185 40.634C50.6424 41.1123 50.8063 41.7239 51.2845 42L52.1506 42.5C52.6289 42.7761 53.2405 42.6123 53.5166 42.134Z" fill="#CAD2E7"/>
<path d="M31 15C31 14.4477 30.5523 14 30 14C29.4477 14 29 14.4477 29 15V28.5858L16.2929 41.2929C15.9024 41.6834 15.9024 42.3166 16.2929 42.7071C16.6834 43.0976 17.3166 43.0976 17.7071 42.7071L30.7071 29.7071C30.8946 29.5196 31 29.2652 31 29V15Z" fill="#CAD2E7"/>
<path fill-rule="evenodd" clip-rule="evenodd" d="M60 30C60 46.5685 46.5685 60 30 60C13.4315 60 0 46.5685 0 30C0 13.4315 13.4315 0 30 0C46.5685 0 60 13.4315 60 30ZM58 30C58 45.464 45.464 58 30 58C14.536 58 2 45.464 2 30C2 14.536 14.536 2 30 2C45.464 2 58 14.536 58 30Z" fill="#CAD2E7"/>
<path d="M31 5C31 4.44772 30.5523 4 30 4C29.4477 4 29 4.44772 29 5V8C29 8.55228 29.4477 9 30 9C30.5523 9 31 8.55229 31 8V5Z" stroke="#CAD2E7"/>
<path d="M29 52C29 51.4477 29.4477 51 30 51C30.5523 51 31 51.4477 31 52V55C31 55.5523 30.5523 56 30 56C29.4477 56 29 55.5523 29 55V52Z" stroke="#CAD2E7"/>
<path d="M4 28C3.44772 28 3 28.4477 3 29C3 29.5523 3.44772 30 4 30H7C7.55228 30 8 29.5523 8 29C8 28.4477 7.55228 28 7 28H4Z" stroke="#CAD2E7"/>
<path d="M50 29C50 28.4477 50.4477 28 51 28H54C54.5523 28 55 28.4477 55 29C55 29.5523 54.5523 30 54 30H51C50.4477 30 50 29.5523 50 29Z" stroke="#CAD2E7"/>
<path d="M8.34942 15.7679C7.87113 15.4918 7.25954 15.6557 6.9834 16.134C6.70726 16.6123 6.87113 17.2239 7.34942 17.5L8.21545 18C8.69374 18.2761 9.30533 18.1123 9.58147 17.634C9.85762 17.1557 9.69374 16.5441 9.21545 16.268L8.34942 15.7679Z" stroke="#CAD2E7"/>
<path d="M15.134 52.0167C14.6557 51.7405 14.4918 51.1289 14.7679 50.6506L15.2679 49.7846C15.5441 49.3063 16.1557 49.1424 16.634 49.4186C17.1123 49.6947 17.2761 50.3063 17 50.7846L16.5 51.6506C16.2239 52.1289 15.6123 52.2928 15.134 52.0167Z" stroke="#CAD2E7"/>
<path d="M18.232 7.34942C17.9559 6.87113 17.3443 6.70726 16.866 6.9834C16.3877 7.25954 16.2239 7.87113 16.5 8.34942L17 9.21545C17.2761 9.69374 17.8877 9.85762 18.366 9.58147C18.8443 9.30533 19.0082 8.69374 18.732 8.21545L18.232 7.34942Z" stroke="#CAD2E7"/>
<path d="M5.9834 42.134C5.70726 41.6557 5.87113 41.0441 6.34942 40.7679L7.21545 40.2679C7.69374 39.9918 8.30533 40.1557 8.58147 40.634C8.85762 41.1123 8.69374 41.7239 8.21545 42L7.34942 42.5C6.87113 42.7761 6.25954 42.6123 5.9834 42.134Z" stroke="#CAD2E7"/>
<path d="M51.1506 15.7679C51.6289 15.4918 52.2405 15.6557 52.5166 16.134C52.7927 16.6123 52.6289 17.2239 52.1506 17.5L51.2845 18C50.8063 18.2761 50.1947 18.1123 49.9185 17.634C49.6424 17.1557 49.8063 16.5441 50.2845 16.268L51.1506 15.7679Z" stroke="#CAD2E7"/>
<path d="M44.366 52.0167C44.8443 51.7405 45.0082 51.1289 44.7321 50.6506L44.2321 49.7846C43.9559 49.3063 43.3443 49.1424 42.866 49.4186C42.3877 49.6947 42.2239 50.3063 42.5 50.7846L43 51.6506C43.2761 52.1289 43.8877 52.2928 44.366 52.0167Z" stroke="#CAD2E7"/>
<path d="M41.2679 7.34942C41.5441 6.87113 42.1557 6.70726 42.634 6.9834C43.1123 7.25954 43.2761 7.87113 43 8.34942L42.5 9.21545C42.2239 9.69374 41.6123 9.85762 41.134 9.58147C40.6557 9.30533 40.4918 8.69374 40.7679 8.21545L41.2679 7.34942Z" stroke="#CAD2E7"/>
<path d="M53.5166 42.134C53.7927 41.6557 53.6289 41.0441 53.1506 40.7679L52.2845 40.2679C51.8063 39.9918 51.1947 40.1557 50.9185 40.634C50.6424 41.1123 50.8063 41.7239 51.2845 42L52.1506 42.5C52.6289 42.7761 53.2405 42.6123 53.5166 42.134Z" stroke="#CAD2E7"/>
<path d="M31 15C31 14.4477 30.5523 14 30 14C29.4477 14 29 14.4477 29 15V28.5858L16.2929 41.2929C15.9024 41.6834 15.9024 42.3166 16.2929 42.7071C16.6834 43.0976 17.3166 43.0976 17.7071 42.7071L30.7071 29.7071C30.8946 29.5196 31 29.2652 31 29V15Z" stroke="#CAD2E7"/>
<path fill-rule="evenodd" clip-rule="evenodd" d="M60 30C60 46.5685 46.5685 60 30 60C13.4315 60 0 46.5685 0 30C0 13.4315 13.4315 0 30 0C46.5685 0 60 13.4315 60 30ZM58 30C58 45.464 45.464 58 30 58C14.536 58 2 45.464 2 30C2 14.536 14.536 2 30 2C45.464 2 58 14.536 58 30Z" stroke="#CAD2E7"/>
</svg>
