<svg width="38" height="10" viewBox="0 0 38 10" fill="none" xmlns="http://www.w3.org/2000/svg">
<g opacity="0.5">
<path d="M2.31905 8.07925H6.02405V9.89255H0V0.107455H2.31905V8.07925Z" fill="#CAD2E7"/>
<path d="M16.707 4.99664C16.707 5.70405 16.5812 6.36221 16.3296 6.97112C16.0826 7.58003 15.7327 8.11059 15.2799 8.56279C14.8271 9.01052 14.2805 9.36199 13.6401 9.61719C13.0043 9.8724 12.2976 10 11.52 10C10.7424 10 10.0334 9.8724 9.39306 9.61719C8.75269 9.36199 8.2038 9.01052 7.7464 8.56279C7.29357 8.11059 6.94136 7.58003 6.68979 6.97112C6.44279 6.36221 6.31929 5.70405 6.31929 4.99664C6.31929 4.28923 6.44279 3.63107 6.68979 3.02216C6.94136 2.41325 7.29357 1.88493 7.7464 1.43721C8.2038 0.989478 8.75269 0.638012 9.39306 0.382808C10.0334 0.127603 10.7424 0 11.52 0C12.2976 0 13.0043 0.129841 13.6401 0.389523C14.2805 0.644728 14.8271 0.996194 15.2799 1.44392C15.7327 1.89165 16.0826 2.41997 16.3296 3.02888C16.5812 3.63779 16.707 4.29371 16.707 4.99664ZM14.3331 4.99664C14.3331 4.5131 14.269 4.0788 14.1409 3.69375C14.0129 3.30423 13.8276 2.97515 13.5852 2.70651C13.3473 2.43788 13.0546 2.23192 12.707 2.08865C12.3593 1.94538 11.9637 1.87374 11.52 1.87374C11.0717 1.87374 10.6715 1.94538 10.3193 2.08865C9.97168 2.23192 9.67666 2.43788 9.43423 2.70651C9.19638 2.97515 9.01342 3.30423 8.88534 3.69375C8.75727 4.0788 8.69323 4.5131 8.69323 4.99664C8.69323 5.48467 8.75727 5.92344 8.88534 6.31296C9.01342 6.69801 9.19638 7.02485 9.43423 7.29349C9.67666 7.56212 9.97168 7.76808 10.3193 7.91135C10.6715 8.05015 11.0717 8.11954 11.52 8.11954C11.9637 8.11954 12.3593 8.05015 12.707 7.91135C13.0546 7.76808 13.3473 7.56212 13.5852 7.29349C13.8276 7.02485 14.0129 6.69801 14.1409 6.31296C14.269 5.92344 14.3331 5.48467 14.3331 4.99664Z" fill="#CAD2E7"/>
<path d="M22.797 8.25386C23.1172 8.25386 23.4008 8.227 23.6478 8.17327C23.8948 8.11954 24.128 8.04791 24.3476 7.95836V6.47414H23.3596C23.2132 6.47414 23.0989 6.43609 23.0165 6.35997C22.9342 6.28386 22.893 6.1876 22.893 6.07119V4.82203H26.4471V8.95232C26.1909 9.13589 25.9234 9.29483 25.6443 9.42915C25.3699 9.55899 25.0749 9.66644 24.7593 9.75151C24.4482 9.83658 24.1143 9.89926 23.7575 9.93956C23.4053 9.97985 23.0257 10 22.6186 10C21.8867 10 21.2098 9.87464 20.5877 9.62391C19.9656 9.3687 19.4259 9.01948 18.9685 8.57623C18.5156 8.1285 18.1589 7.60018 17.8981 6.99127C17.642 6.37788 17.5139 5.71301 17.5139 4.99664C17.5139 4.26685 17.6374 3.59749 17.8844 2.98858C18.1314 2.3752 18.4836 1.84688 18.941 1.40363C19.403 0.960376 19.9588 0.615626 20.6083 0.369375C21.2624 0.123125 21.9919 0 22.797 0C23.2132 0 23.6043 0.0335795 23.9702 0.100739C24.3361 0.167898 24.6723 0.259682 24.9788 0.376091C25.2898 0.492501 25.5734 0.631296 25.8296 0.792478C26.0857 0.95366 26.3144 1.12827 26.5157 1.31632L25.8433 2.31699C25.7793 2.41101 25.7015 2.48489 25.61 2.53862C25.5231 2.59234 25.4271 2.61921 25.3219 2.61921C25.1846 2.61921 25.0428 2.57443 24.8965 2.48489C24.7135 2.37743 24.5397 2.28565 24.375 2.20954C24.2149 2.12895 24.0503 2.06402 23.881 2.01477C23.7118 1.96552 23.5334 1.92971 23.3459 1.90732C23.1583 1.88493 22.9479 1.87374 22.7146 1.87374C22.2801 1.87374 21.889 1.94985 21.5414 2.10208C21.1938 2.24983 20.8965 2.46026 20.6495 2.73338C20.407 3.00649 20.2195 3.33557 20.0868 3.72062C19.9542 4.10119 19.8879 4.52653 19.8879 4.99664C19.8879 5.51601 19.9611 5.97717 20.1074 6.38012C20.2538 6.78308 20.4551 7.12335 20.7112 7.40094C20.9719 7.67853 21.2784 7.8912 21.6306 8.03895C21.9874 8.18223 22.3762 8.25386 22.797 8.25386Z" fill="#CAD2E7"/>
<path d="M38 4.99664C38 5.70405 37.8742 6.36221 37.6226 6.97112C37.3756 7.58003 37.0257 8.11059 36.5729 8.56279C36.1201 9.01052 35.5735 9.36199 34.9331 9.61719C34.2973 9.8724 33.5906 10 32.813 10C32.0354 10 31.3264 9.8724 30.6861 9.61719C30.0457 9.36199 29.4968 9.01052 29.0394 8.56279C28.5866 8.11059 28.2344 7.58003 27.9828 6.97112C27.7358 6.36221 27.6123 5.70405 27.6123 4.99664C27.6123 4.28923 27.7358 3.63107 27.9828 3.02216C28.2344 2.41325 28.5866 1.88493 29.0394 1.43721C29.4968 0.989478 30.0457 0.638012 30.6861 0.382808C31.3264 0.127603 32.0354 0 32.813 0C33.5906 0 34.2973 0.129841 34.9331 0.389523C35.5735 0.644728 36.1201 0.996194 36.5729 1.44392C37.0257 1.89165 37.3756 2.41997 37.6226 3.02888C37.8742 3.63779 38 4.29371 38 4.99664ZM35.6261 4.99664C35.6261 4.5131 35.562 4.0788 35.4339 3.69375C35.3059 3.30423 35.1206 2.97515 34.8782 2.70651C34.6403 2.43788 34.3476 2.23192 34 2.08865C33.6523 1.94538 33.2567 1.87374 32.813 1.87374C32.3647 1.87374 31.9645 1.94538 31.6123 2.08865C31.2647 2.23192 30.9697 2.43788 30.7272 2.70651C30.4894 2.97515 30.3064 3.30423 30.1783 3.69375C30.0503 4.0788 29.9862 4.5131 29.9862 4.99664C29.9862 5.48467 30.0503 5.92344 30.1783 6.31296C30.3064 6.69801 30.4894 7.02485 30.7272 7.29349C30.9697 7.56212 31.2647 7.76808 31.6123 7.91135C31.9645 8.05015 32.3647 8.11954 32.813 8.11954C33.2567 8.11954 33.6523 8.05015 34 7.91135C34.3476 7.76808 34.6403 7.56212 34.8782 7.29349C35.1206 7.02485 35.3059 6.69801 35.4339 6.31296C35.562 5.92344 35.6261 5.48467 35.6261 4.99664Z" fill="#CAD2E7"/>
</g>
</svg>
