<svg width="24" height="24" viewBox="0 0 24 24" fill="none" xmlns="http://www.w3.org/2000/svg">
<path d="M5.5 4.5H18.5V19C18.5 19.8284 17.8284 20.5 17 20.5H7C6.17157 20.5 5.5 19.8284 5.5 19V4.5Z" stroke="white"/>
<path d="M9.5 3C9.5 2.72386 9.72386 2.5 10 2.5H14C14.2761 2.5 14.5 2.72386 14.5 3V4C14.5 4.27614 14.2761 4.5 14 4.5H10C9.72386 4.5 9.5 4.27614 9.5 4V3Z" stroke="white"/>
<path fill-rule="evenodd" clip-rule="evenodd" d="M15 6.99573C15.2761 6.99573 15.5 7.21959 15.5 7.49573V17.5C15.5 17.7761 15.2761 18 15 18C14.7239 18 14.5 17.7761 14.5 17.5V7.49573C14.5 7.21959 14.7239 6.99573 15 6.99573ZM12 7.00941C12.2761 7.00941 12.5 7.23326 12.5 7.50941V17.5137C12.5 17.7898 12.2761 18.0137 12 18.0137C11.7239 18.0137 11.5 17.7898 11.5 17.5137V7.50941C11.5 7.23326 11.7239 7.00941 12 7.00941ZM9.5 7.50941C9.5 7.23326 9.27614 7.00941 9 7.00941C8.72386 7.00941 8.5 7.23326 8.5 7.50941V17.5137C8.5 17.7898 8.72386 18.0137 9 18.0137C9.27614 18.0137 9.5 17.7898 9.5 17.5137V7.50941Z" fill="white"/>
<line x1="4.5" y1="4.5" x2="19.5" y2="4.49997" stroke="white" stroke-linecap="round"/>
</svg>
