<svg width="24" height="24" viewBox="0 0 24 24" fill="none" xmlns="http://www.w3.org/2000/svg">
<path fill-rule="evenodd" clip-rule="evenodd" d="M10 3H14V3.99998L10 3.99999V3ZM9 3.99999V3C9 2.44772 9.44772 2 10 2H14C14.5523 2 15 2.44772 15 3V3.99998L19.4999 3.99997C19.776 3.99997 19.9999 4.22383 19.9999 4.49997C19.9999 4.77611 19.776 4.99997 19.4999 4.99997L19 4.99997V5V19C19 20.1046 18.1046 21 17 21H7C5.89543 21 5 20.1046 5 19V5V5L4.49988 5C4.22374 5 3.99988 4.77614 3.99988 4.5C3.99988 4.22386 4.22373 4 4.49988 4L9 3.99999ZM14 5H10H6V19C6 19.5523 6.44772 20 7 20H17C17.5523 20 18 19.5523 18 19V5H14ZM15 6.99573C15.2761 6.99573 15.5 7.21958 15.5 7.49573V17.5C15.5 17.7761 15.2761 18 15 18C14.7239 18 14.5 17.7761 14.5 17.5V7.49573C14.5 7.21958 14.7239 6.99573 15 6.99573ZM12 7.00941C12.2761 7.00941 12.5 7.23326 12.5 7.50941V17.5137C12.5 17.7898 12.2761 18.0137 12 18.0137C11.7239 18.0137 11.5 17.7898 11.5 17.5137V7.50941C11.5 7.23326 11.7239 7.00941 12 7.00941ZM9.5 7.50941C9.5 7.23326 9.27614 7.00941 9 7.00941C8.72386 7.00941 8.5 7.23326 8.5 7.50941V17.5137C8.5 17.7898 8.72386 18.0137 9 18.0137C9.27614 18.0137 9.5 17.7898 9.5 17.5137V7.50941Z" fill="#CAD2E7"/>
</svg>
