<svg width="67" height="17" viewBox="0 0 67 17" fill="none" xmlns="http://www.w3.org/2000/svg">
<path d="M2.7164 15.6192C2.7164 16.0115 2.58059 16.3435 2.3089 16.6152C2.0524 16.8717 1.72792 17 1.33554 17C0.958292 17 0.641348 16.8717 0.384851 16.6152C0.128284 16.3435 0 16.0115 0 15.6192V1.38083C0 0.988455 0.128284 0.663998 0.384851 0.407457C0.656477 0.135822 0.988481 0 1.38079 0C1.75811 0 2.07499 0.135822 2.33155 0.407457C2.58812 0.663998 2.7164 0.988455 2.7164 1.38083V15.6192Z" fill="white"/>
<path fill-rule="evenodd" clip-rule="evenodd" d="M16.5194 10.4128C16.5042 10.775 16.3609 11.0692 16.0893 11.2956C15.8176 11.522 15.5007 11.6351 15.1385 11.6351H7.66848C7.84954 12.5255 8.26458 13.2273 8.91346 13.7403C9.56241 14.2383 10.2943 14.4873 11.1092 14.4873C11.728 14.4873 12.2108 14.4345 12.558 14.3289C12.905 14.2082 13.1767 14.0874 13.3728 13.9667C13.5841 13.8309 13.7275 13.7403 13.8029 13.6951C14.0746 13.5593 14.3311 13.4913 14.5726 13.4913C14.8895 13.4913 15.1611 13.6045 15.3875 13.8309C15.6138 14.0573 15.7271 14.3213 15.7271 14.6232C15.7271 15.0306 15.5157 15.4004 15.0932 15.7324C14.6707 16.0794 14.1048 16.3737 13.3955 16.6152C12.6862 16.8566 11.9694 16.9774 11.245 16.9774C9.97738 16.9774 8.86821 16.7133 7.91745 16.1851C6.98181 15.6569 6.25743 14.9325 5.74437 14.012C5.2313 13.0763 4.97473 12.0275 4.97473 10.8655C4.97473 9.56768 5.24636 8.42831 5.78961 7.4474C6.33294 6.46649 7.04972 5.71948 7.94011 5.20639C8.83049 4.6782 9.78119 4.41411 10.7923 4.41411C11.7883 4.41411 12.724 4.68575 13.5992 5.22903C14.4896 5.7723 15.1989 6.50421 15.7271 7.42476C16.2553 8.34532 16.5194 9.34132 16.5194 10.4128ZM10.7923 6.90412C9.04174 6.90412 8.00801 7.72659 7.69107 9.3715H13.6219V9.21305C13.5615 8.57923 13.2521 8.03595 12.6938 7.58322C12.1354 7.13049 11.5016 6.90412 10.7923 6.90412Z" fill="white"/>
<path d="M25.1909 14.51C25.0249 14.2987 24.8362 14.1931 24.625 14.1931C24.459 14.1931 24.2854 14.2308 24.1043 14.3063C23.8931 14.3666 23.7271 14.3968 23.6063 14.3968C23.3196 14.3968 23.0932 14.3289 22.9272 14.1931C22.7612 14.0422 22.6782 13.8082 22.6782 13.4913V7.35686H24.2854C24.6476 7.35686 24.9494 7.24367 25.1909 7.0173C25.4323 6.77585 25.5531 6.48158 25.5531 6.13448C25.5531 5.7723 25.4323 5.47049 25.1909 5.22903C24.9494 4.98757 24.6476 4.86685 24.2854 4.86685H22.6782V3.4181C22.6782 3.02574 22.5499 2.70128 22.2934 2.44474C22.0369 2.1731 21.7199 2.03729 21.3427 2.03729C20.9503 2.03729 20.6183 2.1731 20.3466 2.44474C20.0901 2.70128 19.9619 3.02574 19.9619 3.4181V4.86685H18.9205C18.5583 4.86685 18.2565 4.98757 18.0151 5.22903C17.7737 5.45539 17.6529 5.74212 17.6529 6.08921C17.6529 6.45139 17.7737 6.75322 18.0151 6.99467C18.2565 7.23613 18.5583 7.35686 18.9205 7.35686H19.9619V13.6045C19.9619 14.9023 20.2787 15.755 20.9126 16.1624C21.5615 16.5548 22.3537 16.751 23.2894 16.751C23.8477 16.751 24.3458 16.6152 24.7834 16.3435C25.2361 16.0568 25.4625 15.7097 25.4625 15.3023C25.4625 14.9703 25.372 14.7062 25.1909 14.51Z" fill="white"/>
<path d="M50.2974 4.64048C50.6897 4.64048 51.0142 4.7763 51.2707 5.04793C51.5273 5.30448 51.6556 5.62894 51.6556 6.0213V11.771C51.6556 13.4008 51.2028 14.676 50.2974 15.5965C49.407 16.5171 48.1318 16.9774 46.4718 16.9774C44.8118 16.9774 43.5366 16.5171 42.6462 15.5965C41.7559 14.676 41.3107 13.4008 41.3107 11.771V6.0213C41.3107 5.62894 41.439 5.30448 41.6955 5.04793C41.952 4.7763 42.2765 4.64048 42.6689 4.64048C43.0613 4.64048 43.3857 4.7763 43.6422 5.04793C43.8988 5.30448 44.0271 5.62894 44.0271 6.0213V11.771C44.0271 12.6915 44.2308 13.3782 44.6382 13.8309C45.0457 14.2685 45.6569 14.4873 46.4718 14.4873C47.3018 14.4873 47.9206 14.2685 48.328 13.8309C48.7354 13.3782 48.9392 12.6915 48.9392 11.771V6.0213C48.9392 5.62894 49.0674 5.30448 49.324 5.04793C49.5806 4.7763 49.905 4.64048 50.2974 4.64048Z" fill="white"/>
<path fill-rule="evenodd" clip-rule="evenodd" d="M63.6963 5.22903C62.8511 4.68575 61.9079 4.41411 60.8667 4.41411C60.1574 4.41411 59.4783 4.58766 58.8294 4.93475C58.1805 5.26676 57.6749 5.65912 57.3127 6.11185V1.38083C57.3127 0.988455 57.1845 0.663998 56.9279 0.407457C56.6714 0.135822 56.3469 0 55.9545 0C55.5622 0 55.2377 0.135822 54.9812 0.407457C54.7246 0.663998 54.5963 0.988455 54.5963 1.38083V15.5965C54.5963 16.004 54.7246 16.336 54.9812 16.5925C55.2377 16.8491 55.5622 16.9774 55.9545 16.9774C56.3469 16.9774 56.6714 16.8491 56.9279 16.5925C57.1845 16.3209 57.3127 15.9889 57.3127 15.5965V15.4607C57.7353 15.8833 58.2634 16.2454 58.8973 16.5473C59.5462 16.834 60.2329 16.9774 60.9572 16.9774C61.9683 16.9774 62.8888 16.7133 63.7188 16.1851C64.564 15.6418 65.228 14.8948 65.7109 13.9441C66.1938 12.9782 66.4352 11.8917 66.4352 10.6844C66.4352 9.47714 66.1862 8.39813 65.6882 7.4474C65.2053 6.49667 64.5413 5.75721 63.6963 5.22903ZM62.904 13.4008C62.2852 14.1252 61.4929 14.4873 60.5271 14.4873C59.5462 14.4873 58.7464 14.1252 58.1276 13.4008C57.5089 12.6764 57.1995 11.771 57.1995 10.6844C57.1995 9.59787 57.5089 8.69995 58.1276 7.99067C58.7464 7.26631 59.5462 6.90412 60.5271 6.90412C61.508 6.90412 62.3003 7.26631 62.904 7.99067C63.5226 8.69995 63.8321 9.59787 63.8321 10.6844C63.8321 11.771 63.5226 12.6764 62.904 13.4008Z" fill="white"/>
<path d="M27.7485 15.5965V1.38083C27.7485 0.988455 27.8768 0.663998 28.1333 0.407457C28.405 0.135822 28.737 0 29.1293 0C29.5066 0 29.8235 0.135822 30.08 0.407457C30.3366 0.663998 30.4649 0.988455 30.4649 1.38083V5.08108C31.157 4.78734 31.9719 4.64048 32.9096 4.64048C34.5696 4.64048 35.8448 5.10075 36.7352 6.0213C37.6406 6.94185 38.0934 8.21704 38.0934 9.84686V15.5965C38.0934 15.9889 37.9651 16.3134 37.7085 16.5699C37.452 16.8415 37.1275 16.9774 36.7352 16.9774C36.3428 16.9774 36.0183 16.8415 35.7618 16.5699C35.5052 16.3134 35.377 15.9889 35.377 15.5965V9.84686C35.377 8.92632 35.1732 8.23968 34.7658 7.78695C34.3584 7.34931 33.7396 7.13049 32.9096 7.13049C32.0947 7.13049 31.4835 7.34931 31.076 7.78695C30.6686 8.23968 30.4649 8.92632 30.4649 9.84686V15.5965C30.4649 15.9889 30.3366 16.3134 30.08 16.5699C29.8235 16.8415 29.4991 16.9774 29.1067 16.9774C28.7143 16.9774 28.3898 16.8415 28.1333 16.5699C27.8768 16.3134 27.7485 15.9889 27.7485 15.5965Z" fill="white"/>
<path d="M32.9211 13.8396C32.3553 13.8396 31.8967 14.2983 31.8967 14.864V16.2657C31.8967 16.5337 32.1139 16.751 32.3819 16.751H33.4603C33.7283 16.751 33.9455 16.5337 33.9455 16.2657V14.864C33.9455 14.2983 33.4869 13.8396 32.9211 13.8396Z" fill="white"/>
</svg>
