<?xml version="1.0" encoding="utf-8"?>
<!-- Generator: Adobe Illustrator 25.3.1, SVG Export Plug-In . SVG Version: 6.00 Build 0)  -->
<svg version="1.1" id="Слой_1" xmlns="http://www.w3.org/2000/svg" xmlns:xlink="http://www.w3.org/1999/xlink" x="0px" y="0px"
	 viewBox="0 0 603.2 154.7" style="enable-background:new 0 0 603.2 154.7;" xml:space="preserve">
<style type="text/css">
	.st0{fill:#122658;}
	.st1{fill:#2F80ED;}
</style>
<g id="Слой_2_1_">
	<g id="Слой_1-2">
		<path class="st0" d="M176.1,152.6V49.2h19.6v103.4H176.1z"/>
		<path class="st0" d="M228.4,123.5c2.6,9.3,9.8,13.9,21.4,13.9c7.5,0,13.1-2.5,17-7.4l15.8,8.9c-7.5,10.5-18.5,15.8-33.1,15.8
			c-12.5,0-22.6-3.7-30.2-11.1c-7.6-7.4-11.4-16.7-11.4-27.9c0-11.1,3.7-20.4,11.2-27.8s17.1-11.2,28.8-11.2
			c11.1,0,20.3,3.7,27.5,11.2c7.2,7.5,10.9,16.7,10.9,27.8c0,2.6-0.3,5.2-0.8,7.8H228.4z M228.1,108.8h38.7c-1.1-5-3.4-8.8-6.9-11.2
			c-3.5-2.5-7.6-3.8-11.9-3.7c-5.3,0-9.6,1.3-13,3.9C231.4,100.5,228.9,104.4,228.1,108.8z"/>
		<path class="st0" d="M341.1,97.1h-17.1v30.7c0,2.6,0.6,4.4,2,5.6c1.6,1.3,3.7,2,5.8,2c3.1,0.1,6.3,0.1,9.4-0.1v17.3
			c-13.5,1.5-22.9,0.2-28.4-3.7s-8.3-11-8.3-21.1V97.1h-13.2V78.8h13.2V63.8l19.6-5.8v20.7h17.1L341.1,97.1z"/>
		<path class="st0" d="M397,76.7c8.3,0,15.1,2.7,20.6,8.1c5.4,5.4,8.1,12.9,8.1,22.5v45.4h-19.5v-43c0-4.9-1.4-8.7-4.1-11.3
			c-2.7-2.6-6.4-3.9-10.9-3.9c-5.1,0-9.1,1.5-12.1,4.6s-4.6,7.6-4.5,13.8v39.9h-19.6V49.2h19.6V87C379.2,80.1,386.7,76.7,397,76.7z"
			/>
		<path class="st0" d="M488.9,78.8h19.6v73.9h-19.6v-8.3c-4.7,6.9-12.3,10.3-22.6,10.3c-8.3,0-15.2-2.7-20.6-8.1
			c-5.4-5.4-8.1-12.9-8.1-22.5V78.8h19.6v43c0,4.9,1.4,8.7,4.1,11.3s6.4,3.9,10.9,3.9c5.1,0,9.1-1.5,12.1-4.6
			c3-3.1,4.5-7.6,4.5-13.7L488.9,78.8z"/>
		<path class="st0" d="M566.2,76.7c9.9-0.1,19.4,4,26.2,11.3c7.2,7.5,10.8,16.8,10.8,27.7s-3.6,20.2-10.8,27.7
			c-6.7,7.3-16.2,11.4-26.2,11.3c-10.6,0-18.8-3.6-24.6-10.8v8.7H522V49.2h19.6v38.3C547.3,80.3,555.5,76.7,566.2,76.7z
			 M547.5,130.7c4,3.9,9.4,6,15,5.8c5.6,0.2,11.1-1.9,15.1-5.8c4-3.9,6-8.9,6-15s-2-11.1-6-15c-4-3.9-9.5-6-15.1-5.8
			c-5.6-0.2-11,1.9-15,5.8c-3.9,3.9-5.9,8.9-5.9,15S543.5,126.8,547.5,130.7L547.5,130.7z"/>
		<path class="st1" d="M0,0h34.9l0,0v154.7l0,0h-1.4C15,154.7,0,139.7,0,121.1c0,0,0,0,0,0V0L0,0z"/>
		<rect x="48.5" class="st1" width="34.9" height="154.7"/>
		<path class="st1" d="M97,59h1.4c18.5,0,33.6,15,33.6,33.5v62.2l0,0H97l0,0V59L97,59z"/>
	</g>
</g>
</svg>
