<svg width="59" height="16" viewBox="0 0 59 16" fill="none" xmlns="http://www.w3.org/2000/svg">
<path d="M2.40002 13.8C2.40002 14.1467 2.28003 14.44 2.03998 14.68C1.81335 14.9067 1.52667 15.02 1.17999 15.02C0.84668 15.02 0.56665 14.9067 0.340027 14.68C0.113342 14.44 0 14.1467 0 13.8V1.22C0 0.873329 0.113342 0.586662 0.340027 0.360001C0.580017 0.120003 0.873352 0 1.21997 0C1.55334 0 1.83331 0.120003 2.06 0.360001C2.28668 0.586662 2.40002 0.873329 2.40002 1.22V13.8Z" fill="#CAD2E7"/>
<path fill-rule="evenodd" clip-rule="evenodd" d="M14.5953 9.2C14.582 9.52 14.4553 9.78 14.2153 9.98C13.9753 10.18 13.6953 10.28 13.3753 10.28H6.77533C6.9353 11.0667 7.302 11.6867 7.87531 12.14C8.44867 12.58 9.09534 12.8 9.81531 12.8C10.362 12.8 10.7886 12.7533 11.0953 12.66C11.402 12.5533 11.642 12.4467 11.8153 12.34C12.002 12.22 12.1287 12.14 12.1953 12.1C12.4353 11.98 12.662 11.92 12.8753 11.92C13.1553 11.92 13.3953 12.02 13.5953 12.22C13.7953 12.42 13.8953 12.6533 13.8953 12.92C13.8953 13.28 13.7086 13.6067 13.3353 13.9C12.962 14.2067 12.462 14.4667 11.8353 14.68C11.2086 14.8933 10.5753 15 9.9353 15C8.81531 15 7.83533 14.7667 6.9953 14.3C6.16864 13.8333 5.52863 13.1933 5.07532 12.38C4.62201 11.5533 4.39532 10.6267 4.39532 9.6C4.39532 8.45333 4.63531 7.44666 5.1153 6.58C5.59534 5.71333 6.22864 5.05333 7.01532 4.6C7.802 4.13333 8.64197 3.9 9.53534 3.9C10.4153 3.9 11.242 4.14 12.0153 4.62C12.802 5.1 13.4286 5.74667 13.8953 6.56C14.362 7.37334 14.5953 8.25333 14.5953 9.2ZM9.53534 6.1C7.98865 6.1 7.07532 6.82667 6.79529 8.28H12.0353V8.14C11.982 7.58 11.7086 7.1 11.2153 6.7C10.722 6.3 10.162 6.1 9.53534 6.1Z" fill="#CAD2E7"/>
<path d="M22.2569 12.82C22.1102 12.6333 21.9435 12.54 21.7569 12.54C21.6102 12.54 21.4568 12.5733 21.2969 12.64C21.1102 12.6933 20.9636 12.72 20.8569 12.72C20.6035 12.72 20.4036 12.66 20.2569 12.54C20.1102 12.4067 20.0369 12.2 20.0369 11.92V6.5H21.4568C21.7769 6.5 22.0435 6.4 22.2569 6.2C22.4702 5.98666 22.5769 5.72667 22.5769 5.42C22.5769 5.1 22.4702 4.83334 22.2569 4.62C22.0435 4.40667 21.7769 4.3 21.4568 4.3H20.0369V3.02C20.0369 2.67333 19.9235 2.38667 19.6969 2.16C19.4702 1.92 19.1902 1.8 18.8569 1.8C18.5102 1.8 18.2169 1.92 17.9769 2.16C17.7502 2.38667 17.6369 2.67333 17.6369 3.02V4.3H16.7169C16.3969 4.3 16.1302 4.40667 15.9169 4.62C15.7036 4.82 15.5969 5.07333 15.5969 5.38C15.5969 5.7 15.7036 5.96667 15.9169 6.18C16.1302 6.39333 16.3969 6.5 16.7169 6.5H17.6369V12.02C17.6369 13.1667 17.9169 13.92 18.4769 14.28C19.0502 14.6267 19.7502 14.8 20.5769 14.8C21.0702 14.8 21.5102 14.68 21.8969 14.44C22.2969 14.1867 22.4969 13.88 22.4969 13.52C22.4969 13.2267 22.4169 12.9933 22.2569 12.82Z" fill="#CAD2E7"/>
<path d="M44.4392 4.1C44.7859 4.1 45.0726 4.22 45.2992 4.46C45.5259 4.68667 45.6392 4.97334 45.6392 5.32V10.4C45.6392 11.84 45.2392 12.9667 44.4392 13.78C43.6525 14.5933 42.5259 15 41.0592 15C39.5925 15 38.4659 14.5933 37.6792 13.78C36.8926 12.9667 36.4992 11.84 36.4992 10.4V5.32C36.4992 4.97334 36.6125 4.68667 36.8392 4.46C37.0659 4.22 37.3525 4.1 37.6992 4.1C38.0459 4.1 38.3326 4.22 38.5592 4.46C38.7859 4.68667 38.8992 4.97334 38.8992 5.32V10.4C38.8992 11.2133 39.0792 11.82 39.4392 12.22C39.7992 12.6067 40.3392 12.8 41.0592 12.8C41.7925 12.8 42.3392 12.6067 42.6992 12.22C43.0592 11.82 43.2392 11.2133 43.2392 10.4V5.32C43.2392 4.97334 43.3525 4.68667 43.5792 4.46C43.8059 4.22 44.0925 4.1 44.4392 4.1Z" fill="#CAD2E7"/>
<path fill-rule="evenodd" clip-rule="evenodd" d="M56.2775 4.62C55.5308 4.14 54.6975 3.9 53.7775 3.9C53.1508 3.9 52.5508 4.05333 51.9775 4.36C51.4042 4.65334 50.9575 5 50.6375 5.4V1.22C50.6375 0.873329 50.5242 0.586662 50.2975 0.360001C50.0709 0.120003 49.7842 0 49.4375 0C49.0908 0 48.8041 0.120003 48.5775 0.360001C48.3508 0.586662 48.2375 0.873329 48.2375 1.22V13.78C48.2375 14.14 48.3508 14.4333 48.5775 14.66C48.8041 14.8867 49.0908 15 49.4375 15C49.7842 15 50.0709 14.8867 50.2975 14.66C50.5242 14.42 50.6375 14.1267 50.6375 13.78V13.66C51.0109 14.0333 51.4775 14.3533 52.0375 14.62C52.6108 14.8733 53.2175 15 53.8575 15C54.7509 15 55.5641 14.7667 56.2975 14.3C57.0442 13.82 57.6309 13.16 58.0575 12.32C58.4842 11.4667 58.6975 10.5067 58.6975 9.44C58.6975 8.37334 58.4775 7.42 58.0375 6.58C57.6108 5.74 57.0242 5.08667 56.2775 4.62ZM55.5775 11.84C55.0308 12.48 54.3308 12.8 53.4775 12.8C52.6108 12.8 51.9042 12.48 51.3575 11.84C50.8109 11.2 50.5375 10.4 50.5375 9.44C50.5375 8.48 50.8109 7.68667 51.3575 7.06C51.9042 6.42 52.6108 6.1 53.4775 6.1C54.3442 6.1 55.0442 6.42 55.5775 7.06C56.1241 7.68667 56.3975 8.48 56.3975 9.44C56.3975 10.4 56.1241 11.2 55.5775 11.84Z" fill="#CAD2E7"/>
<path d="M24.5166 13.78V1.22C24.5166 0.873329 24.6299 0.586662 24.8566 0.360001C25.0966 0.120003 25.39 0 25.7366 0C26.0699 0 26.3499 0.120003 26.5766 0.360001C26.8033 0.586662 26.9166 0.873329 26.9166 1.22V4.48928C27.5281 4.22976 28.2481 4.1 29.0766 4.1C30.5433 4.1 31.6699 4.50667 32.4566 5.32C33.2566 6.13333 33.6566 7.26 33.6566 8.7V13.78C33.6566 14.1267 33.5433 14.4133 33.3166 14.64C33.09 14.88 32.8033 15 32.4566 15C32.1099 15 31.8232 14.88 31.5966 14.64C31.3699 14.4133 31.2566 14.1267 31.2566 13.78V8.7C31.2566 7.88667 31.0766 7.28 30.7166 6.88C30.3566 6.49333 29.8099 6.3 29.0766 6.3C28.3566 6.3 27.8166 6.49333 27.4566 6.88C27.0966 7.28 26.9166 7.88667 26.9166 8.7V13.78C26.9166 14.1267 26.8033 14.4133 26.5766 14.64C26.3499 14.88 26.0633 15 25.7166 15C25.3699 15 25.0833 14.88 24.8566 14.64C24.6299 14.4133 24.5166 14.1267 24.5166 13.78Z" fill="#CAD2E7"/>
<path d="M29.0868 12.2277C28.5869 12.2277 28.1816 12.6329 28.1816 13.1328V14.3713C28.1816 14.608 28.3736 14.8 28.6104 14.8H29.5632C29.8 14.8 29.9919 14.608 29.9919 14.3713V13.1328C29.9919 12.6329 29.5867 12.2277 29.0868 12.2277Z" fill="#CAD2E7"/>
</svg>
