<svg width="80" height="64" viewBox="0 0 80 64" fill="none" xmlns="http://www.w3.org/2000/svg">
<path opacity="0.5" fill-rule="evenodd" clip-rule="evenodd" d="M56.4558 1.36754C56.1836 0.55086 55.4193 0 54.5585 0H25.4415C24.5807 0 23.8164 0.55086 23.5442 1.36754L20.6838 9.94868C20.2754 11.1737 19.129 12 17.8377 12H8C3.58179 12 0 15.5817 0 20V56C0 60.4183 3.58179 64 8 64H72C76.4185 64 80 60.4183 80 56V20C80 15.5817 76.4185 12 72 12H62.1623C60.871 12 59.7246 11.1737 59.3162 9.94868L56.4558 1.36754ZM40 56C51.0459 56 60 47.0457 60 36C60 24.9543 51.0459 16 40 16C28.9541 16 20 24.9543 20 36C20 47.0457 28.9541 56 40 56ZM69 26C70.6567 26 72 24.6569 72 23C72 21.3431 70.6567 20 69 20C67.3433 20 66 21.3431 66 23C66 24.6569 67.3433 26 69 26ZM40 48C46.6274 48 52 42.6274 52 36C52 29.3726 46.6274 24 40 24C33.3726 24 28 29.3726 28 36C28 42.6274 33.3726 48 40 48Z" fill="#CCCFD6"/>
</svg>
