<svg width="24" height="24" viewBox="0 0 24 24" fill="none" xmlns="http://www.w3.org/2000/svg">
<path fill-rule="evenodd" clip-rule="evenodd" d="M12 16C11.4477 16 11 16.4477 11 17C11 17.5523 11.4477 18 12 18C12.5523 18 13 17.5523 13 17C13 16.4477 12.5523 16 12 16Z" fill="#EB5757"/>
<path fill-rule="evenodd" clip-rule="evenodd" d="M11.9932 14C11.579 14 11.2432 13.6642 11.2432 13.25L11.2432 7.75C11.2432 7.33579 11.5789 7 11.9932 7C12.4074 7 12.7432 7.33579 12.7432 7.75L12.7432 13.25C12.7432 13.6642 12.4074 14 11.9932 14Z" fill="#EB5757"/>
<path fill-rule="evenodd" clip-rule="evenodd" d="M12.0073 3.00067C12.0053 3.00029 12.0028 3 12 3C11.9972 3 11.9947 3.00029 11.9927 3.00067L2.01344 20H21.9866L12.0073 3.00067ZM12.8691 2.49351C12.4828 1.8355 11.5172 1.8355 11.1309 2.49351L1.13595 19.5195C0.749674 20.1775 1.23252 21 2.00507 21H21.9949C22.7675 21 23.2503 20.1775 22.864 19.5195L12.8691 2.49351Z" fill="#EB5757"/>
</svg>
