<svg width="30" height="30" viewBox="0 0 30 30" fill="none" xmlns="http://www.w3.org/2000/svg">
<circle cx="15" cy="15" r="15" fill="#BDE7FF"/>
<mask id="mask0" mask-type="alpha" maskUnits="userSpaceOnUse" x="0" y="0" width="30" height="30">
<circle cx="15" cy="15" r="15" fill="#CAD2E7"/>
</mask>
<g mask="url(#mask0)">
<mask id="path-3-inside-1" fill="white">
<path fill-rule="evenodd" clip-rule="evenodd" d="M15.1195 2C11.3321 2 8.26181 5.0703 8.26181 8.85771V11.4862C5.82907 11.9876 4 14.1416 4 16.7228C4 19.6757 6.39379 22.0695 9.34669 22.0695C11.1111 22.0695 12.6759 21.2148 13.6497 19.8969C14.1232 20.0003 14.615 20.0548 15.1195 20.0548C15.6241 20.0548 16.1159 20.0003 16.5895 19.8969C17.5632 21.2148 19.128 22.0695 20.8925 22.0695C23.8454 22.0695 26.2392 19.6757 26.2392 16.7228C26.2392 14.1415 24.41 11.9875 21.9772 11.4862V8.85771C21.9772 5.0703 18.9069 2 15.1195 2Z"/>
</mask>
<path fill-rule="evenodd" clip-rule="evenodd" d="M15.1195 2C11.3321 2 8.26181 5.0703 8.26181 8.85771V11.4862C5.82907 11.9876 4 14.1416 4 16.7228C4 19.6757 6.39379 22.0695 9.34669 22.0695C11.1111 22.0695 12.6759 21.2148 13.6497 19.8969C14.1232 20.0003 14.615 20.0548 15.1195 20.0548C15.6241 20.0548 16.1159 20.0003 16.5895 19.8969C17.5632 21.2148 19.128 22.0695 20.8925 22.0695C23.8454 22.0695 26.2392 19.6757 26.2392 16.7228C26.2392 14.1415 24.41 11.9875 21.9772 11.4862V8.85771C21.9772 5.0703 18.9069 2 15.1195 2Z" fill="#BDE7FF"/>
<path d="M8.26181 11.4862L8.46367 12.4656L9.26181 12.3011V11.4862H8.26181ZM13.6497 19.8969L13.863 18.9199L13.2303 18.7817L12.8454 19.3026L13.6497 19.8969ZM16.5895 19.8969L17.3937 19.3026L17.0088 18.7817L16.3761 18.9199L16.5895 19.8969ZM21.9772 11.4862H20.9772V12.3011L21.7754 12.4656L21.9772 11.4862ZM9.26181 8.85771C9.26181 5.62259 11.8844 3 15.1195 3V1C10.7798 1 7.26181 4.51802 7.26181 8.85771H9.26181ZM9.26181 11.4862V8.85771H7.26181V11.4862H9.26181ZM8.05996 10.5068C5.17183 11.102 3 13.6576 3 16.7228H5C5 14.6255 6.48631 12.8732 8.46367 12.4656L8.05996 10.5068ZM3 16.7228C3 20.228 5.84151 23.0695 9.34669 23.0695V21.0695C6.94608 21.0695 5 19.1234 5 16.7228H3ZM9.34669 23.0695C11.4418 23.0695 13.2998 22.0533 14.454 20.4911L12.8454 19.3026C12.0521 20.3764 10.7804 21.0695 9.34669 21.0695V23.0695ZM15.1195 19.0548C14.6872 19.0548 14.2669 19.0081 13.863 18.9199L13.4363 20.8739C13.9795 20.9925 14.5428 21.0548 15.1195 21.0548V19.0548ZM16.3761 18.9199C15.9722 19.0081 15.5519 19.0548 15.1195 19.0548V21.0548C15.6963 21.0548 16.2596 20.9925 16.8028 20.8738L16.3761 18.9199ZM15.7852 20.4911C16.9394 22.0532 18.7973 23.0695 20.8925 23.0695V21.0695C19.4587 21.0695 18.1871 20.3763 17.3937 19.3026L15.7852 20.4911ZM20.8925 23.0695C24.3976 23.0695 27.2392 20.228 27.2392 16.7228H25.2392C25.2392 19.1234 23.2931 21.0695 20.8925 21.0695V23.0695ZM27.2392 16.7228C27.2392 13.6576 25.0673 11.102 22.1791 10.5068L21.7754 12.4656C23.7528 12.8731 25.2392 14.6255 25.2392 16.7228H27.2392ZM20.9772 8.85771V11.4862H22.9772V8.85771H20.9772ZM15.1195 3C18.3546 3 20.9772 5.62259 20.9772 8.85771H22.9772C22.9772 4.51802 19.4592 1 15.1195 1V3Z" fill="#0DB8EE" mask="url(#path-3-inside-1)"/>
<path d="M5.5 26C5.5 21.8579 8.85786 18.5 13 18.5H17C21.1421 18.5 24.5 21.8579 24.5 26V32.5H5.5V26Z" fill="#BDE7FF" stroke="#0DB8EE"/>
<path d="M19 13C19 14.6569 17.6569 16 16 16H14C12.3431 16 11 14.6569 11 13V9H19V13Z" fill="white"/>
<path d="M11 9V14C11 15.1046 11.8954 16 13 16H17C18.1046 16 19 15.1046 19 14V9" stroke="#0DB8EE"/>
<path fill-rule="evenodd" clip-rule="evenodd" d="M13 17.6216L11 19.2431L15 23L19 19.2431L17 17.6216V16H15H13V17.6216Z" fill="white"/>
<path d="M11 19.2431L10.6851 18.8548L10.2402 19.2155L10.6577 19.6076L11 19.2431ZM13 17.6216L13.3149 18.01L13.5 17.8599V17.6216H13ZM15 23L14.6577 23.3645L15 23.686L15.3423 23.3645L15 23ZM19 19.2431L19.3423 19.6076L19.7598 19.2155L19.3149 18.8548L19 19.2431ZM17 17.6216H16.5V17.8599L16.6851 18.0099L17 17.6216ZM17 16H17.5V15.5H17V16ZM13 16V15.5H12.5V16H13ZM11.3149 19.6315L13.3149 18.01L12.6851 17.2332L10.6851 18.8548L11.3149 19.6315ZM15.3423 22.6355L11.3423 18.8787L10.6577 19.6076L14.6577 23.3645L15.3423 22.6355ZM18.6577 18.8787L14.6577 22.6355L15.3423 23.3645L19.3423 19.6076L18.6577 18.8787ZM16.6851 18.0099L18.6851 19.6315L19.3149 18.8548L17.3149 17.2332L16.6851 18.0099ZM16.5 16V17.6216H17.5V16H16.5ZM15 16.5H17V15.5H15V16.5ZM13 16.5H15V15.5H13V16.5ZM13.5 17.6216V16H12.5V17.6216H13.5Z" fill="#0DB8EE"/>
<circle cx="13.5" cy="11.5" r="0.5" fill="#0DB8EE"/>
<circle cx="16.5" cy="11.5" r="0.5" fill="#0DB8EE"/>
<path d="M11 9C11 9 12.2069 9.5 15 9.5C17.7931 9.5 19 9 19 9" stroke="#0DB8EE" stroke-linecap="round"/>
</g>
</svg>
