<svg width="28" height="28" viewBox="0 0 28 28" fill="none" xmlns="http://www.w3.org/2000/svg">
<path d="M10.1453 2.40972L13.6167 3.51843C13.8191 3.58307 14.0368 3.58157 14.2383 3.51413L17.694 2.35749L19.8508 5.29489C19.9765 5.46616 20.1536 5.59292 20.3562 5.6568L23.8318 6.75228L23.8501 10.3964C23.8511 10.6089 23.9199 10.8155 24.0463 10.9863L26.2142 13.9154L24.087 16.8743C23.963 17.0469 23.8971 17.2544 23.899 17.4669L23.9311 21.1109L20.471 22.2543C20.2693 22.321 20.094 22.4502 19.9707 22.6232L17.8548 25.5902L14.3834 24.4815C14.181 24.4168 13.9632 24.4183 13.7617 24.4858L10.306 25.6424L8.14928 22.705C8.02352 22.5337 7.84648 22.407 7.64383 22.3431L4.16824 21.2476L4.14996 17.6035C4.1489 17.391 4.08018 17.1844 3.95377 17.0136L1.78587 14.0845L3.91303 11.1256C4.03706 10.9531 4.10291 10.7455 4.10104 10.533L4.06889 6.88902L7.52899 5.74555C7.73074 5.67888 7.90601 5.54968 8.02938 5.37668L10.1453 2.40972Z" stroke="#1ECCC0"/>
<path d="M9.33325 14.3241L12.8333 17.5L19.8333 10.5" stroke="#1ECCC0" stroke-linecap="round"/>
</svg>
