<svg width="24" height="24" viewBox="0 0 24 24" fill="none" xmlns="http://www.w3.org/2000/svg">
<path d="M16.9433 4.56193L17.3463 4.26601L16.9433 4.56193C17.069 4.7332 17.246 4.85997 17.4487 4.92384L20.3558 5.84014L20.3711 8.8882C20.3722 9.10067 20.4409 9.30729 20.5673 9.47808L20.9692 9.18063L20.5673 9.47808L22.3806 11.9281L20.6014 14.4031L21.0073 14.6949L20.6014 14.4031C20.4773 14.5756 20.4115 14.7831 20.4134 14.9956L20.4402 18.0436L17.5461 19C17.3444 19.0667 17.1691 19.1959 17.0457 19.3689L15.2759 21.8506L12.3723 20.9232L12.2202 21.3995L12.3723 20.9232C12.1699 20.8585 11.9522 20.8601 11.7507 20.9275L8.86018 21.8949L7.05622 19.438C6.93046 19.2667 6.75343 19.14 6.55077 19.0761L3.64366 18.1598L3.62838 15.1117C3.62731 14.8993 3.55859 14.6926 3.43219 14.5218L1.61888 12.0718L3.39811 9.59688C3.52214 9.42435 3.58799 9.21681 3.58612 9.00433L3.55923 5.95636L6.45338 4.99992C6.65512 4.93325 6.83039 4.80404 6.95377 4.63105L8.72356 2.14938L11.6272 3.07674C11.8296 3.14139 12.0473 3.13988 12.2488 3.07244L15.1393 2.10498L16.9433 4.56193Z" stroke="#1ECCC0"/>
<path d="M8 12.2778L11 15L17 9" stroke="#1ECCC0" stroke-linecap="round"/>
</svg>
