<svg id="SvgjsSvg1001" width="288" height="288" xmlns="http://www.w3.org/2000/svg" version="1.1" xmlns:xlink="http://www.w3.org/1999/xlink" xmlns:svgjs="http://svgjs.com/svgjs"><defs id="SvgjsDefs1002"></defs><g id="SvgjsG1008" transform="matrix(0.9167,0,0,0.9167,11.995198967266077,11.995198967266077)"><svg xmlns="http://www.w3.org/2000/svg" width="288" height="288" viewBox="0 0 160 160"><path fill="#ff4721" d="M 14.414062 143 L 25.730469 131.683594 L 25.074219 130.972656 C 12.128906 117.066406 5 98.964844 5 80 C 5 38.644531 38.644531 5 80 5 C 83.390625 5 86.996094 5.292969 91 5.894531 L 91 24.09375 C 87.316406 23.367188 83.625 23 80 23 C 48.570312 23 23 48.570312 23 80 C 23 94.0625 28.257812 107.605469 37.796875 118.132812 L 38.503906 118.910156 L 51 106.410156 L 51 143 Z M 14.414062 143 " class="color42b9ee svgShape"></path><path fill="#f14515" d="M 80 6 C 83.101562 6 86.386719 6.25 90 6.761719 L 90 22.886719 C 86.648438 22.296875 83.296875 22 80 22 C 48.019531 22 22 48.019531 22 80 C 22 94.3125 27.347656 108.09375 37.058594 118.804688 L 38.46875 120.359375 L 50 108.828125 L 50 142 L 16.828125 142 L 27.121094 131.707031 L 25.804688 130.296875 C 13.035156 116.570312 6 98.710938 6 80 C 6 39.195312 39.195312 6 80 6 M 80 4 C 38.027344 4 4 38.027344 4 80 C 4 99.972656 11.734375 118.109375 24.34375 131.65625 L 12 144 L 52 144 L 52 104 L 38.539062 117.460938 C 29.546875 107.542969 24 94.449219 24 80 C 24 49.070312 49.070312 24 80 24 C 84.125 24 88.128906 24.476562 92 25.320312 L 92 5.039062 C 88.082031 4.414062 84.09375 4 80 4 Z M 80 4 " class="color4e7ab5 svgShape"></path><path fill="#ff4721" d="M 80 155 C 76.609375 155 73.003906 154.707031 69 154.105469 L 69 135.90625 C 72.683594 136.632812 76.375 137 80 137 C 111.429688 137 137 111.429688 137 80 C 137 65.914062 131.75 52.367188 122.21875 41.851562 L 121.511719 41.070312 L 109 53.585938 L 109 17 L 145.585938 17 L 134.234375 28.351562 L 134.890625 29.058594 C 147.859375 42.988281 155 61.082031 155 80 C 155 121.355469 121.355469 155 80 155 Z M 80 155 " class="color42b9ee svgShape"></path><path fill="#f14515" d="M 143.171875 18 L 132.847656 28.324219 L 134.160156 29.738281 C 146.953125 43.484375 154 61.335938 154 80 C 154 120.804688 120.804688 154 80 154 C 76.898438 154 73.613281 153.75 70 153.238281 L 70 137.113281 C 73.351562 137.703125 76.703125 138 80 138 C 111.980469 138 138 111.980469 138 80 C 138 65.664062 132.65625 51.878906 122.960938 41.179688 L 121.550781 39.621094 L 110 51.171875 L 110 18 L 143.171875 18 M 148 16 L 108 16 L 108 56 L 121.476562 42.523438 C 130.46875 52.441406 136 65.550781 136 80 C 136 110.929688 110.929688 136 80 136 C 75.875 136 71.871094 135.523438 68 134.679688 L 68 154.960938 C 71.917969 155.585938 75.90625 156 80 156 C 121.972656 156 156 121.972656 156 80 C 156 60.027344 148.230469 41.925781 135.625 28.375 Z M 148 16 " class="color4e7ab5 svgShape"></path></svg></g></svg>