<svg width="28" height="28" viewBox="0 0 28 28" fill="none" xmlns="http://www.w3.org/2000/svg">
<path fill-rule="evenodd" clip-rule="evenodd" d="M13.9999 24.5002C19.7989 24.5002 24.4999 19.7992 24.4999 14.0002C24.4999 8.20117 19.7989 3.50016 13.9999 3.50016C8.20093 3.50016 3.49992 8.20117 3.49992 14.0002C3.49992 19.7992 8.20093 24.5002 13.9999 24.5002ZM13.9999 25.6668C20.4432 25.6668 25.6666 20.4435 25.6666 14.0002C25.6666 7.55684 20.4432 2.3335 13.9999 2.3335C7.5566 2.3335 2.33325 7.55684 2.33325 14.0002C2.33325 20.4435 7.5566 25.6668 13.9999 25.6668Z" fill="#EB5757"/>
<path fill-rule="evenodd" clip-rule="evenodd" d="M17.6709 18.4959L9.50427 10.3292C9.27646 10.1014 9.27646 9.73208 9.50427 9.50428C9.73207 9.27647 10.1014 9.27647 10.3292 9.50428L18.4959 17.6709C18.7237 17.8988 18.7237 18.2681 18.4959 18.4959C18.2681 18.7237 17.8987 18.7237 17.6709 18.4959Z" fill="#EB5757"/>
<path fill-rule="evenodd" clip-rule="evenodd" d="M18.4957 9.50402C18.7235 9.73183 18.7235 10.1012 18.4957 10.329L10.3291 18.4956C10.1013 18.7235 9.73191 18.7235 9.5041 18.4956C9.27629 18.2678 9.27629 17.8985 9.5041 17.6707L17.6708 9.50402C17.8986 9.27622 18.2679 9.27622 18.4957 9.50402Z" fill="#EB5757"/>
</svg>
