<svg width="50" height="50" viewBox="0 0 50 50" fill="none" xmlns="http://www.w3.org/2000/svg">
<rect opacity="0.1" width="50" height="50" rx="8" fill="#0DB8EE"/>
<path d="M32.1729 17.6335C32.1729 17.5524 32.1972 17.47 32.2314 17.4013L32.2319 17.4002L34.8108 12.1029C34.9042 11.9056 35.0953 11.8 35.3083 11.8C35.597 11.8 35.9516 12.0171 35.9516 12.3993C35.9516 12.451 35.9451 12.5417 35.9005 12.6315L35.9 12.6325L33.3137 17.9301C33.221 18.1262 32.9999 18.2327 32.7941 18.2327C32.427 18.2327 32.1729 17.9319 32.1729 17.6335Z" fill="#0DB8EE"/>
<path fill-rule="evenodd" clip-rule="evenodd" d="M27.7935 15.8376C27.7222 15.9696 27.7104 16.0902 27.7104 16.1557C27.7104 16.3211 27.7647 16.4752 27.8747 16.5891C27.9852 16.7036 28.1372 16.7622 28.3024 16.7622H29.8132V17.332C29.8132 17.6732 30.151 17.8944 30.596 17.8944C31.0409 17.8944 31.3787 17.6732 31.3787 17.3322V16.7622H31.4854C31.6739 16.7622 31.8173 16.6311 31.9012 16.5065C31.9902 16.3741 32.0478 16.2008 32.0478 16.0235C32.0478 15.5924 31.8142 15.2849 31.4854 15.2849H31.3787V14.9795C31.3787 14.832 31.3086 14.6847 31.1679 14.5803C31.0308 14.4783 30.8383 14.4247 30.596 14.4247C30.3985 14.4247 30.2341 14.4603 30.1057 14.5286L30.879 12.9773L30.8836 12.9676C30.9042 12.9199 30.9377 12.8383 30.9377 12.7446C30.9377 12.5318 30.8019 12.3621 30.6286 12.2517C30.4905 12.1642 30.3099 12.1016 30.155 12.1016C29.8648 12.1016 29.6245 12.2507 29.4911 12.509L27.7935 15.8376Z" fill="#0DB8EE"/>
<path d="M39.9567 14.3788C39.9865 14.323 40.0491 14.2006 40.1049 14.0587C40.1586 13.9221 40.2161 13.7429 40.2161 13.5827V12.6637C40.2161 12.4905 40.0931 12.3481 39.9797 12.2633C39.8561 12.1708 39.6876 12.1016 39.5067 12.1016H36.8969C36.7245 12.1016 36.557 12.1608 36.43 12.2511C36.309 12.3371 36.1875 12.4803 36.1875 12.6637V13.8033C36.1875 13.9966 36.3118 14.1419 36.4497 14.2287C36.5904 14.3173 36.7725 14.3657 36.963 14.3657C37.1552 14.3657 37.34 14.3164 37.4828 14.2287C37.6206 14.1441 37.7533 13.9995 37.7533 13.8033V13.52H38.6504V13.7692L36.8698 16.8527L36.868 16.8559C36.8167 16.9487 36.7905 17.0421 36.7905 17.1484C36.7905 17.4031 36.9336 17.6045 37.1095 17.7346C37.2846 17.8641 37.5106 17.9384 37.7278 17.9384C37.9362 17.9384 38.1317 17.8694 38.2361 17.6728L39.9567 14.3788Z" fill="#0DB8EE"/>
<path d="M26.0925 15.9988C25.882 16.1431 25.7026 16.2666 25.5743 16.3838C25.5366 16.4183 25.5071 16.4488 25.4842 16.4759H27.1263C27.3074 16.4759 27.4499 16.5866 27.5379 16.7111C27.6279 16.8384 27.6812 17.0046 27.6812 17.1777C27.6812 17.3536 27.6287 17.5227 27.5395 17.6527C27.4526 17.7792 27.3101 17.8946 27.1263 17.8946H24.5089C24.3665 17.8946 24.2028 17.8482 24.071 17.7663C23.9423 17.6863 23.7998 17.5423 23.7998 17.3322V16.619C23.7998 16.2389 23.9984 15.9217 24.2501 15.6554C24.4992 15.3919 24.8251 15.1527 25.1274 14.9309L25.1351 14.9253C25.4119 14.7221 25.6632 14.537 25.847 14.3511C26.0334 14.1626 26.1154 14.0074 26.1154 13.8694C26.1154 13.7888 26.0905 13.7111 26.0426 13.6566C25.999 13.6071 25.9196 13.5569 25.766 13.5569C25.6316 13.5569 25.5527 13.5948 25.5074 13.6402C25.462 13.6856 25.4241 13.7646 25.4241 13.899C25.4241 14.2594 25.0724 14.5275 24.6118 14.5275C24.3982 14.5275 24.2031 14.4663 24.0665 14.3085C23.9349 14.1565 23.8879 13.949 23.8879 13.7225C23.8879 13.1911 24.1386 12.7795 24.4988 12.5066C24.8543 12.237 25.3159 12.1016 25.7587 12.1016C26.2382 12.1016 26.7142 12.2578 27.0657 12.5391C27.4676 12.8605 27.6812 13.312 27.6812 13.8329C27.6812 14.3831 27.4441 14.8144 27.1302 15.1603C26.8229 15.499 26.4318 15.7666 26.1031 15.9916L26.0925 15.9988Z" fill="#0DB8EE"/>
<path fill-rule="evenodd" clip-rule="evenodd" d="M18 11C18 8.79086 19.7909 7 22 7H40C42.2091 7 44 8.79086 44 11V19C44 21.2091 42.2091 23 40 23H29.0366L24.6508 26.7593C24.3543 27.0134 23.937 27.0717 23.5821 26.9085C23.2273 26.7453 23 26.3905 23 26V23H22C19.7909 23 18 21.2091 18 19V11ZM22 9C20.8954 9 20 9.89543 20 11V19C20 20.1046 20.8954 21 22 21H24C24.5523 21 25 21.4477 25 22V23.8258L28.0159 21.2407C28.1971 21.0854 28.428 21 28.6667 21H40C41.1046 21 42 20.1046 42 19V11C42 9.89543 41.1046 9 40 9H22Z" fill="#0DB8EE"/>
<path fill-rule="evenodd" clip-rule="evenodd" d="M7.08585 18.5967C8.30315 16.9031 10.6993 16.4915 12.4378 17.6773L16.425 20.3972C18.9747 22.1365 19.5944 25.5601 17.809 28.0441C17.3221 28.7215 17.4911 29.6552 18.1865 30.1296L22.3836 32.9926C23.079 33.4669 24.0374 33.3023 24.5244 32.6248C26.3097 30.1409 29.824 29.5372 32.3738 31.2765L36.361 33.9963C38.0995 35.1822 38.522 37.5165 37.3047 39.2101C33.7742 44.1221 26.9397 45.4391 21.7754 42.307C21.6675 42.2468 21.5619 42.1815 21.4588 42.1112L9.91691 34.2381C4.70147 30.6804 3.43396 23.6775 7.08585 18.5967ZM34.8209 39.0392C35.1075 38.7365 35.3767 38.4116 35.6259 38.0649C36.194 37.2746 35.9968 36.1852 35.1855 35.6318L31.1983 32.912C29.7182 31.9024 27.7274 32.1333 26.5268 33.3814L34.8209 39.0392ZM33.2229 40.3864L25.0388 34.8038C23.8723 35.4491 22.38 35.4275 21.2081 34.6281L17.011 31.7651C15.839 30.9656 15.3078 29.607 15.5313 28.3184L7.34724 22.7357C6.39133 26.3556 7.7642 30.3323 11.0924 32.6026L22.6344 40.4757C22.6957 40.5176 22.7585 40.5556 22.8225 40.59C26.0904 42.5916 30.1829 42.4163 33.2229 40.3864ZM15.2494 22.0327C16.7295 23.0423 17.1876 24.9438 16.3943 26.4697L8.10027 20.812C8.29419 20.4461 8.5155 20.0885 8.76468 19.7419C9.33275 18.9515 10.4509 18.7594 11.2622 19.3128L15.2494 22.0327Z" fill="#0DB8EE"/>
</svg>
