<svg width="50" height="50" viewBox="0 0 50 50" fill="none" xmlns="http://www.w3.org/2000/svg">
<rect opacity="0.1" x="0.5" y="0.5" width="49" height="49" rx="7.5" fill="#FFB96E" stroke="#FFB96E"/>
<path d="M18 7C18.5523 7 19 7.44772 19 8V9.00098H23.5V8C23.5 7.44772 23.9477 7 24.5 7C25.0523 7 25.5 7.44772 25.5 8V9.00098H30V8C30 7.44772 30.4477 7 31 7C31.5523 7 32 7.44772 32 8V9.00098H37C39.2091 9.00098 41 10.7918 41 13.001V25.5004C41 26.0527 40.5523 26.5004 40 26.5004C39.4477 26.5004 39 26.0527 39 25.5004V13.001C39 11.8964 38.1046 11.001 37 11.001H32V11.9812C32 12.5335 31.5523 12.9812 31 12.9812C30.4477 12.9812 30 12.5335 30 11.9812V11.001H25.5V11.9812C25.5 12.5335 25.0523 12.9812 24.5 12.9812C23.9477 12.9812 23.5 12.5335 23.5 11.9812V11.001H19V11.9812C19 12.5335 18.5523 12.9812 18 12.9812C17.4477 12.9812 17 12.5335 17 11.9812V11.001H12C10.8954 11.001 10 11.8964 10 13.001V35.9998C10 37.1043 10.8954 37.9998 12 37.9998H24.5C25.0523 37.9998 25.5 38.4475 25.5 38.9998C25.5 39.552 25.0523 39.9998 24.5 39.9998H12C9.79086 39.9998 8 38.2089 8 35.9998V13.001C8 10.7918 9.79086 9.00098 12 9.00098H17V8C17 7.44772 17.4477 7 18 7Z" fill="#FFB96E"/>
<path d="M20.7433 17.3318C21.1128 17.7423 21.0795 18.3746 20.669 18.744L17.3356 21.744C16.9553 22.0863 16.378 22.0863 15.9977 21.744L14.331 20.244C13.9205 19.8746 13.8873 19.2423 14.2567 18.8318C14.6262 18.4213 15.2585 18.388 15.669 18.7574L16.6667 19.6554L19.331 17.2574C19.7416 16.888 20.3738 16.9213 20.7433 17.3318Z" fill="#FFB96E"/>
<path d="M23 19C23 18.4477 23.4477 18 24 18H34C34.5523 18 35 18.4477 35 19C35 19.5523 34.5523 20 34 20H24C23.4477 20 23 19.5523 23 19Z" fill="#FFB96E"/>
<path d="M23 25C23 24.4477 23.4477 24 24 24H34C34.5523 24 35 24.4477 35 25C35 25.5523 34.5523 26 34 26H24C23.4477 26 23 25.5523 23 25Z" fill="#FFB96E"/>
<path d="M20.669 24.744C21.0795 24.3746 21.1128 23.7423 20.7433 23.3318C20.3738 22.9213 19.7416 22.888 19.331 23.2574L16.6667 25.6554L15.669 24.7574C15.2585 24.388 14.6262 24.4213 14.2567 24.8318C13.8873 25.2423 13.9205 25.8746 14.331 26.244L15.9977 27.744C16.378 28.0863 16.9553 28.0863 17.3356 27.744L20.669 24.744Z" fill="#FFB96E"/>
<path d="M23 31C23 30.4477 23.4477 30 24 30H27C27.5523 30 28 30.4477 28 31C28 31.5523 27.5523 32 27 32H24C23.4477 32 23 31.5523 23 31Z" fill="#FFB96E"/>
<path d="M20.669 30.744C21.0795 30.3746 21.1128 29.7423 20.7433 29.3318C20.3738 28.9213 19.7416 28.888 19.331 29.2574L16.6667 31.6554L15.669 30.7574C15.2585 30.388 14.6262 30.4213 14.2567 30.8318C13.8873 31.2423 13.9205 31.8746 14.331 32.244L15.9977 33.744C16.378 34.0863 16.9553 34.0863 17.3356 33.744L20.669 30.744Z" fill="#FFB96E"/>
<path d="M37 34.5007C37 33.9484 36.5523 33.5007 36 33.5007C35.4477 33.5007 35 33.9484 35 34.5007V37.0007C35 37.2659 35.1054 37.5203 35.2929 37.7078L37.2929 39.7078C37.6834 40.0984 38.3166 40.0984 38.7071 39.7078C39.0976 39.3173 39.0976 38.6842 38.7071 38.2936L37 36.5865V34.5007Z" fill="#FFB96E"/>
<path fill-rule="evenodd" clip-rule="evenodd" d="M36 45.0007C40.4183 45.0007 44 41.419 44 37.0007C44 32.5825 40.4183 29.0007 36 29.0007C31.5817 29.0007 28 32.5825 28 37.0007C28 41.419 31.5817 45.0007 36 45.0007ZM36 43.0007C39.3137 43.0007 42 40.3144 42 37.0007C42 33.687 39.3137 31.0007 36 31.0007C32.6863 31.0007 30 33.687 30 37.0007C30 40.3144 32.6863 43.0007 36 43.0007Z" fill="#FFB96E"/>
</svg>
