<svg width="50" height="50" viewBox="0 0 50 50" fill="none" xmlns="http://www.w3.org/2000/svg">
<rect opacity="0.1" width="49.848" height="50" rx="8" fill="#E93FA5"/>
<path d="M19 8.99927C19 8.44698 18.5523 7.99927 18 7.99927C17.4477 7.99927 17 8.44698 17 8.99927V10.0002H12C9.79086 10.0002 8 11.7911 8 14.0002V36.999C8 39.2082 9.79086 40.999 12 40.999H24.5C25.0523 40.999 25.5 40.5513 25.5 39.999C25.5 39.4467 25.0523 38.999 24.5 38.999H12C10.8954 38.999 10 38.1036 10 36.999V14.0002C10 12.8957 10.8954 12.0002 12 12.0002H17V12.9805C17 13.5328 17.4477 13.9805 18 13.9805C18.5523 13.9805 19 13.5328 19 12.9805V12.0002H23.5V12.9805C23.5 13.5328 23.9477 13.9805 24.5 13.9805C25.0523 13.9805 25.5 13.5328 25.5 12.9805V12.0002H30V12.9805C30 13.5328 30.4477 13.9805 31 13.9805C31.5523 13.9805 32 13.5328 32 12.9805V12.0002H37C38.1046 12.0002 39 12.8957 39 14.0002V25.4996C39 26.0519 39.4477 26.4996 40 26.4996C40.5523 26.4996 41 26.0519 41 25.4996V14.0002C41 11.7911 39.2091 10.0002 37 10.0002H32V8.99927C32 8.44698 31.5523 7.99927 31 7.99927C30.4477 7.99927 30 8.44698 30 8.99927V10.0002H25.5V8.99927C25.5 8.44698 25.0523 7.99927 24.5 7.99927C23.9477 7.99927 23.5 8.44698 23.5 8.99927V10.0002H19V8.99927Z" fill="#E93FA5"/>
<path d="M17 20.5C17 21.3284 16.3284 22 15.5 22C14.6716 22 14 21.3284 14 20.5C14 19.6716 14.6716 19 15.5 19C16.3284 19 17 19.6716 17 20.5Z" fill="#E93FA5"/>
<path d="M23 20.5C23 21.3284 22.3284 22 21.5 22C20.6716 22 20 21.3284 20 20.5C20 19.6716 20.6716 19 21.5 19C22.3284 19 23 19.6716 23 20.5Z" fill="#E93FA5"/>
<path d="M29 20.5C29 21.3284 28.3284 22 27.5 22C26.6716 22 26 21.3284 26 20.5C26 19.6716 26.6716 19 27.5 19C28.3284 19 29 19.6716 29 20.5Z" fill="#E93FA5"/>
<path d="M29 26.5C29 27.3284 28.3284 28 27.5 28C26.6716 28 26 27.3284 26 26.5C26 25.6716 26.6716 25 27.5 25C28.3284 25 29 25.6716 29 26.5Z" fill="#E93FA5"/>
<path d="M35 20.5C35 21.3284 34.3284 22 33.5 22C32.6716 22 32 21.3284 32 20.5C32 19.6716 32.6716 19 33.5 19C34.3284 19 35 19.6716 35 20.5Z" fill="#E93FA5"/>
<path d="M17 26.5C17 27.3284 16.3284 28 15.5 28C14.6716 28 14 27.3284 14 26.5C14 25.6716 14.6716 25 15.5 25C16.3284 25 17 25.6716 17 26.5Z" fill="#E93FA5"/>
<path d="M23 26.5C23 27.3284 22.3284 28 21.5 28C20.6716 28 20 27.3284 20 26.5C20 25.6716 20.6716 25 21.5 25C22.3284 25 23 25.6716 23 26.5Z" fill="#E93FA5"/>
<path d="M17 32.5C17 33.3284 16.3284 34 15.5 34C14.6716 34 14 33.3284 14 32.5C14 31.6716 14.6716 31 15.5 31C16.3284 31 17 31.6716 17 32.5Z" fill="#E93FA5"/>
<path d="M23 32.5C23 33.3284 22.3284 34 21.5 34C20.6716 34 20 33.3284 20 32.5C20 31.6716 20.6716 31 21.5 31C22.3284 31 23 31.6716 23 32.5Z" fill="#E93FA5"/>
<path d="M35.2174 41C36.7987 41 38.3165 40.3983 39.2496 39.339C39.6147 38.9246 40.2466 38.8846 40.661 39.2496C41.0754 39.6147 41.1154 40.2466 40.7504 40.661C39.3678 42.2306 37.2583 43 35.2174 43C31.3666 43 28.4913 39.7986 28.057 36H26L29 33L32 36H30.0712C30.4867 38.8794 32.6677 41 35.2174 41Z" fill="#E93FA5"/>
<path d="M31.7504 31.661C32.6835 30.6017 34.2013 30 35.7826 30C38.3323 30 40.5133 32.1206 40.9288 35H39L42 38L45 35H42.943C42.5087 31.2014 39.6334 28 35.7826 28C33.7417 28 31.6322 28.7694 30.2496 30.339C29.8846 30.7534 29.9246 31.3853 30.339 31.7504C30.7534 32.1154 31.3853 32.0754 31.7504 31.661Z" fill="#E93FA5"/>
</svg>
