<svg width="51" height="50" viewBox="0 0 51 50" fill="none" xmlns="http://www.w3.org/2000/svg">
<rect opacity="0.1" x="1.34766" y="0.5" width="49" height="49" rx="7.5" fill="#1ECCC0" stroke="#1ECCC0"/>
<path fill-rule="evenodd" clip-rule="evenodd" d="M9.84766 16.9995C9.84766 14.7904 11.6385 12.9995 13.8477 12.9995H39.8477C42.0568 12.9995 43.8477 14.7904 43.8477 16.9995V35.0002C43.8477 37.2094 42.0568 39.0002 39.8477 39.0002H30.8477C30.2954 39.0002 29.8477 38.5525 29.8477 38.0002C29.8477 37.448 30.2954 37.0002 30.8477 37.0002H39.8477C40.9522 37.0002 41.8477 36.1048 41.8477 35.0002V16.9995C41.8477 16.8058 41.8201 16.6186 41.7688 16.4415L28.8946 28.4574C27.742 29.5332 25.9533 29.5332 24.8007 28.4574L11.9265 16.4415C11.8752 16.6186 11.8477 16.8058 11.8477 16.9995V21.6797C11.8477 22.232 11.3999 22.6797 10.8477 22.6797C10.2954 22.6797 9.84766 22.232 9.84766 21.6797V16.9995ZM39.8477 14.9995C40.0111 14.9995 40.1699 15.0191 40.322 15.0561L27.53 26.9953C27.1458 27.3539 26.5495 27.3539 26.1653 26.9953L13.3733 15.0561C13.5254 15.0191 13.6842 14.9995 13.8477 14.9995H39.8477Z" fill="#1ECCC0"/>
<path fill-rule="evenodd" clip-rule="evenodd" d="M15.8477 25C15.8477 24.6014 15.6109 24.2408 15.2451 24.0824C14.8793 23.9239 14.4544 23.9979 14.1636 24.2706L6.16358 31.7733C5.96197 31.9624 5.84761 32.2265 5.84766 32.5029C5.84771 32.7793 5.96216 33.0434 6.16385 33.2324L14.1638 40.7297C14.4547 41.0022 14.8796 41.076 15.2453 40.9176C15.611 40.7591 15.8477 40.3986 15.8477 40V36.6575C16.8886 36.8216 18.2126 37.0771 19.5758 37.4621C21.0139 37.8683 22.6805 38.6956 24.0241 39.4507C24.6876 39.8237 25.2568 40.1701 25.6596 40.423C25.8704 40.5553 26.0806 40.689 26.2874 40.8276L26.2888 40.8286C26.6586 41.0776 27.1488 41.0519 27.4904 40.7654C27.832 40.4787 27.9426 40.0006 27.7614 39.5931C27.7605 39.591 27.7605 39.591 27.7614 39.5931L27.7605 39.591C27.6401 39.3255 27.5118 39.0637 27.3796 38.8039C27.1362 38.3252 26.7801 37.6618 26.3268 36.9171C25.4297 35.4435 24.112 33.5853 22.4878 32.232C20.4515 30.5354 17.6437 29.708 15.8477 29.3235V25ZM21.2075 33.7686C22.3586 34.7276 23.3742 36.0331 24.1747 37.2545C22.9356 36.5986 21.4746 35.9202 20.1195 35.5374C18.0633 34.9566 16.1094 34.6558 14.9712 34.5141C14.6866 34.4787 14.4006 34.5671 14.1857 34.7569C13.9707 34.9468 13.8477 35.2197 13.8477 35.5064V37.6923L8.30977 32.5025L13.8477 27.3088V30.1473C13.8477 30.6329 14.1965 31.0483 14.6748 31.1323C16.2668 31.4116 19.2538 32.1407 21.2075 33.7686Z" fill="#1ECCC0"/>
</svg>
