<svg width="51" height="50" viewBox="0 0 51 50" fill="none" xmlns="http://www.w3.org/2000/svg">
<rect opacity="0.1" x="1.34766" y="0.5" width="49" height="49" rx="7.5" fill="#EF692F" stroke="#EF692F"/>
<path fill-rule="evenodd" clip-rule="evenodd" d="M27.8477 18C27.8477 16.3431 29.1908 15 30.8477 15H37.8477C39.5045 15 40.8477 16.3431 40.8477 18C40.8477 19.6569 39.5045 21 37.8477 21H30.8477C29.1908 21 27.8477 19.6569 27.8477 18ZM30.8477 17H37.8477C38.3999 17 38.8477 17.4477 38.8477 18C38.8477 18.5523 38.3999 19 37.8477 19H30.8477C30.2954 19 29.8477 18.5523 29.8477 18C29.8477 17.4477 30.2954 17 30.8477 17Z" fill="#EF692F"/>
<path fill-rule="evenodd" clip-rule="evenodd" d="M22.8477 14V16H12.8477C10.6385 16 8.84766 17.7909 8.84766 20V36C8.84766 38.2091 10.6385 40 12.8477 40H29.8477C32.0568 40 33.8477 38.2091 33.8477 36V26H41.8477C44.0568 26 45.8477 24.2091 45.8477 22V14C45.8477 11.7909 44.0568 10 41.8477 10H26.8477C24.6385 10 22.8477 11.7909 22.8477 14ZM26.8477 12C25.7431 12 24.8477 12.8954 24.8477 14V22C24.8477 23.1046 25.7431 24 26.8477 24H41.8477C42.9522 24 43.8477 23.1046 43.8477 22V14C43.8477 12.8954 42.9522 12 41.8477 12H26.8477ZM31.8477 36V26H26.8477C26.1058 26 25.4112 25.7981 24.8157 25.4462L20.5548 29.7071L22.8477 32H16.8477V26L19.1405 28.2929L23.4015 24.032C23.0496 23.4365 22.8477 22.7418 22.8477 22V18H12.8477C11.7431 18 10.8477 18.8954 10.8477 20V36C10.8477 37.1046 11.7431 38 12.8477 38H29.8477C30.9522 38 31.8477 37.1046 31.8477 36Z" fill="#EF692F"/>
</svg>
