<svg width="51" height="50" viewBox="0 0 51 50" fill="none" xmlns="http://www.w3.org/2000/svg">
<rect opacity="0.1" x="1.34766" y="0.5" width="49" height="49" rx="7.5" fill="#8248FD" stroke="#8248FD"/>
<path d="M40.8479 8H34.8479L37.2864 10.4385C36.9511 10.8298 36.4781 11.3241 35.8371 11.8781C34.195 13.297 31.435 15.1197 27.0299 16.5969C23.4286 17.8046 19.6795 18.0529 16.8067 17.9914C15.3752 17.9608 14.1732 17.8535 13.332 17.7544C12.9117 17.7049 12.5822 17.6575 12.3601 17.6229C12.2517 17.606 12.1434 17.5879 12.0353 17.5688L12.0328 17.5683C11.4902 17.4662 10.9675 17.8231 10.8652 18.3657C10.7628 18.9084 11.1198 19.4313 11.6625 19.5337L11.6638 19.534C11.7929 19.558 11.9226 19.5789 12.0523 19.5991C12.297 19.6372 12.6511 19.688 13.098 19.7407C13.9912 19.8459 15.2579 19.9587 16.7639 19.9909C19.7662 20.0552 23.7671 19.8005 27.6658 18.4932C32.3088 16.9362 35.2988 14.9864 37.1447 13.3914C37.8047 12.8211 38.3166 12.2977 38.7042 11.8563L40.8479 14V8Z" fill="#9B51E0"/>
<path fill-rule="evenodd" clip-rule="evenodd" d="M31.8479 22V25H26.8484C25.7438 25 24.8484 25.8954 24.8484 27L24.8479 30H19.8479C18.7433 30 17.8479 30.8954 17.8479 32V34H12.8479C11.7433 34 10.8479 34.8954 10.8479 36V41H40.8479V22C40.8479 20.8954 39.9525 20 38.8479 20H33.8479C32.7433 20 31.8479 20.8954 31.8479 22ZM38.8479 22H33.8479V26.9536C33.8482 26.969 33.8484 26.9845 33.8484 27V39H38.8479V22ZM24.8479 39H19.8479V32H24.8479V39ZM12.8479 36H17.8479V39H12.8479V36ZM26.8484 27H31.8479V39H26.8484V27Z" fill="#9B51E0"/>
</svg>
