<svg width="50" height="50" viewBox="0 0 50 50" fill="none" xmlns="http://www.w3.org/2000/svg">
<rect opacity="0.1" width="50" height="50" rx="8" fill="#6E8EFF"/>
<path fill-rule="evenodd" clip-rule="evenodd" d="M38.0386 25.9998H39C39.0009 26.5513 39.4483 26.998 40 26.998H43C43.5523 26.998 44 26.5503 44 25.998C44 25.4458 43.5523 24.998 43 24.998H41V13.0007L43 13.0002C43.5523 13.0002 44 12.5525 44 12.0002C44 11.448 43.5523 11.0002 43 11.0002H40C39.4477 11.0002 39 11.448 39 12.0002L37.4241 12.0007L36 10.5832V7.00024C36 6.44796 35.5523 6.00024 35 6.00024C32.2386 6.00024 30 8.23882 30 11.0002V12.0007H26.9906C25.3389 12.0007 24 13.3397 24 14.9913C24 15.5378 24.147 16.0504 24.403 16.4912C24.147 16.932 24 17.4446 24 17.9911C24 18.9188 24.4221 19.7466 25.0836 20.2947C25.029 20.5212 25 20.7574 25 21C25 21.8941 25.3914 22.696 26.0098 23.2447C26.1344 24.7871 27.4255 26 29 26H38L38.0386 25.9998ZM34 8.17095C32.8348 8.58279 32 9.69403 32 11.0002V13.0007C32 13.553 31.5523 14.0007 31 14.0007H26.9906C26.4435 14.0007 26 14.4442 26 14.9913C26 15.2889 26.1299 15.5549 26.3396 15.738C26.557 15.9279 26.6817 16.2025 26.6817 16.4911C26.6817 16.7798 26.557 17.0544 26.3396 17.2443C26.13 17.4274 26 17.6935 26 17.9911C26 18.4244 26.2788 18.7953 26.6698 18.929C26.965 19.0301 27.1962 19.2631 27.2948 19.5592C27.3934 19.8553 27.3482 20.1804 27.1724 20.4383C27.0636 20.598 27 20.7901 27 21C27 21.3722 27.2029 21.6984 27.509 21.8715C27.8629 22.0718 28.0603 22.4664 28.0083 22.8697C28.0029 22.9119 28 22.9554 28 23C28 23.5523 28.4477 24 29 24H38L38.0316 23.9998H39V14.0007H37.0113C36.7469 14.0007 36.4932 13.896 36.3058 13.7095L34.2945 11.7075C34.106 11.5199 34 11.2648 34 10.9988V8.17095Z" fill="#6E8EFF"/>
<path d="M10.9772 19.2127C12.1292 13.9077 16.6531 10 22 10C22.5522 10 23 9.55228 23 9C23 8.44772 22.5522 8 22 8C15.6348 8 10.3576 12.6414 9.02274 18.7883C8.90554 19.328 9.24805 19.8605 9.78776 19.9777C10.3275 20.0949 10.86 19.7524 10.9772 19.2127Z" fill="#6E8EFF"/>
<path fill-rule="evenodd" clip-rule="evenodd" d="M11 23.9998H20L20.0223 24H21C22.5791 24 23.8733 25.2201 23.9912 26.769C24.6089 27.3161 25 28.1162 25 29.0085C25 29.2484 24.9716 29.482 24.918 29.7061C25.5786 30.2542 26 31.0815 26 32.0084C26 32.555 25.8529 33.0677 25.5969 33.5085C25.8529 33.9493 26 34.462 26 35.0085C26 36.6603 24.661 37.9993 23.0093 37.9993H20V38.9993C20 41.7607 17.7614 43.9993 15 43.9993C14.4477 43.9993 14 43.5516 14 42.9993V39.4148L12.578 37.9993H11V38.001C11 38.5533 10.5523 39.001 10 39.001H7C6.44772 39.001 6 38.5533 6 38.001C6 37.4487 6.44772 37.001 7 37.001H9V24.9976H7C6.44772 24.9976 6 24.5498 6 23.9976C6 23.4453 6.44772 22.9976 7 22.9976H10C10.5523 22.9976 11 23.4453 11 23.9976V23.9998ZM18 38.9993C18 40.3055 17.1652 41.4167 16 41.8286V38.9993C16 38.7333 15.894 38.4782 15.7055 38.2905L13.6963 36.2905C13.5089 36.104 13.2553 35.9993 12.9908 35.9993H11V25.9998H19.9777L20 26H21C21.5523 26 22 26.4477 22 27C22 27.0469 21.9968 27.0925 21.9908 27.1368C21.9357 27.5435 22.1346 27.9425 22.4925 28.1433C22.7975 28.3144 23 28.6385 23 29.0085C23 29.216 22.9374 29.4057 22.8301 29.5637C22.6551 29.8214 22.6102 30.1459 22.7086 30.4414C22.807 30.7369 23.0374 30.9697 23.3319 31.071C23.722 31.2053 24 31.5757 24 32.0084C24 32.3061 23.87 32.5722 23.6603 32.7553C23.4429 32.9452 23.3181 33.2198 23.3181 33.5085C23.3181 33.7972 23.4429 34.0718 23.6603 34.2617C23.87 34.4448 24 34.7109 24 35.0085C24 35.5557 23.5564 35.9993 23.0093 35.9993H19C18.4477 35.9993 18 36.447 18 36.9993V38.9993Z" fill="#6E8EFF"/>
<path d="M39.0228 30.7871C37.8708 36.0929 33.3468 40.001 28 40.001C27.4478 40.001 27 40.4487 27 41.001C27 41.5533 27.4478 42.001 28 42.001C34.3653 42.001 39.6425 37.359 40.9773 31.2115C41.0945 30.6717 40.7519 30.1392 40.2122 30.022C39.6725 29.9049 39.14 30.2474 39.0228 30.7871Z" fill="#6E8EFF"/>
</svg>
