<svg width="51" height="50" viewBox="0 0 51 50" fill="none" xmlns="http://www.w3.org/2000/svg">
<rect opacity="0.1" x="0.847656" width="50" height="50" rx="8" fill="#F63A5C"/>
<path d="M29.8477 16.5C29.8477 15.6716 30.5192 15 31.3477 15C32.1761 15 32.8477 15.6716 32.8477 16.5C32.8477 17.3284 32.1761 18 31.3477 18C31.2613 18 31.1776 18.0109 31.0977 18.0315C31.0178 18.0109 30.934 18 30.8477 18C30.2954 18 29.8477 18.4477 29.8477 19V21C29.8477 21.5523 30.2954 22 30.8477 22C31.3999 22 31.8477 21.5523 31.8477 21V19.9646C33.5438 19.7219 34.8477 18.2632 34.8477 16.5C34.8477 14.567 33.2807 13 31.3477 13C29.4147 13 27.8477 14.567 27.8477 16.5C27.8477 17.0523 28.2954 17.5 28.8477 17.5C29.3999 17.5 29.8477 17.0523 29.8477 16.5Z" fill="#F63A5C"/>
<path d="M30.8477 25C31.3999 25 31.8477 24.5523 31.8477 24C31.8477 23.4477 31.3999 23 30.8477 23C30.2954 23 29.8477 23.4477 29.8477 24C29.8477 24.5523 30.2954 25 30.8477 25Z" fill="#F63A5C"/>
<path fill-rule="evenodd" clip-rule="evenodd" d="M18.8477 18.5C18.8477 12.1815 23.9687 7 30.2993 7H32.396C38.7266 7 43.8477 12.1815 43.8477 18.5C43.8477 21.9797 42.2946 25.1117 39.8477 27.2236V32C39.8477 32.4002 39.609 32.7619 39.2411 32.9194C38.8731 33.0768 38.4467 32.9997 38.1572 32.7234L34.9917 29.7017C34.157 29.8969 33.2879 30 32.396 30H30.2993C23.9687 30 18.8477 24.8185 18.8477 18.5ZM30.2993 9C25.0853 9 20.8477 13.274 20.8477 18.5C20.8477 23.726 25.0853 28 30.2993 28H32.396C33.301 28 34.1747 27.8717 35.0013 27.6328C35.3433 27.534 35.7119 27.6244 35.9694 27.8701L37.8477 29.663V26.7531C37.8477 26.4474 37.9875 26.1586 38.2272 25.9689C40.4335 24.2231 41.8477 21.5188 41.8477 18.5C41.8477 13.274 37.61 9 32.396 9H30.2993Z" fill="#F63A5C"/>
<path d="M10.3332 19.4856C10.0626 19.7562 9.84766 20.2205 9.84766 21V35C9.84766 35.7795 10.0626 36.2438 10.3332 36.5144C10.6039 36.7851 11.0682 37 11.8477 37H16.8477C17.1129 37 17.3672 37.1054 17.5548 37.2929L20.8477 40.5858V38C20.8477 37.4477 21.2954 37 21.8477 37H28.8477C29.6271 37 30.0914 36.7851 30.3621 36.5144C30.6327 36.2438 30.8477 35.7795 30.8477 35V33C30.8477 32.4477 31.2954 32 31.8477 32C32.3999 32 32.8477 32.4477 32.8477 33V35C32.8477 36.1446 32.5246 37.1803 31.7763 37.9286C31.028 38.677 29.9923 39 28.8477 39H22.8477V43C22.8477 43.4045 22.604 43.7691 22.2303 43.9239C21.8567 44.0787 21.4265 43.9931 21.1405 43.7071L16.4334 39H11.8477C10.7031 39 9.66736 38.677 8.91902 37.9286C8.17068 37.1803 7.84766 36.1446 7.84766 35V21C7.84766 19.8554 8.17068 18.8197 8.91902 18.0714C9.66736 17.323 10.7031 17 11.8477 17H15.8477C16.3999 17 16.8477 17.4477 16.8477 18C16.8477 18.5523 16.3999 19 15.8477 19H11.8477C11.0682 19 10.6039 19.2149 10.3332 19.4856Z" fill="#F63A5C"/>
<path d="M13.8477 32C13.2954 32 12.8477 32.4477 12.8477 33C12.8477 33.5523 13.2954 34 13.8477 34H27.8477C28.3999 34 28.8477 33.5523 28.8477 33C28.8477 32.4477 28.3999 32 27.8477 32H13.8477Z" fill="#F63A5C"/>
<path d="M12.8477 24C12.8477 23.4477 13.2954 23 13.8477 23H16.8477C17.3999 23 17.8477 23.4477 17.8477 24C17.8477 24.5523 17.3999 25 16.8477 25H13.8477C13.2954 25 12.8477 24.5523 12.8477 24Z" fill="#F63A5C"/>
<path d="M12.8477 28.5C12.8477 27.9477 13.2954 27.5 13.8477 27.5H18.8477C19.3999 27.5 19.8477 27.9477 19.8477 28.5C19.8477 29.0523 19.3999 29.5 18.8477 29.5H13.8477C13.2954 29.5 12.8477 29.0523 12.8477 28.5Z" fill="#F63A5C"/>
</svg>
